<?xml version="1.0" encoding="utf-8" ?>
<svg baseProfile="full" height="100%" version="1.1" viewBox="0,0,600,600" width="100%" xmlns="http://www.w3.org/2000/svg" xmlns:ev="http://www.w3.org/2001/xml-events" xmlns:xlink="http://www.w3.org/1999/xlink"><defs /><rect fill="white" height="600" width="600" x="0" y="0" /><path d="M100,100 L101,103 M101,103 L107,118 M107,118 L111,139 M111,139 L120,171 M120,171 L127,205 M127,205 L132,235 M132,235 L140,272 M140,272 L142,299 M142,299 L149,332 M149,332 L157,361 M157,361 L156,374 M156,374 L160,386 M160,386 L160,386 M160,386 L158,383 M158,383 L156,370 M156,370 L155,301 M155,301 L159,270 M159,270 L160,232 M160,232 L165,200 M165,200 L172,172 M172,172 L178,149 M178,149 L180,128 M180,128 L185,116 M185,116 L183,145 M183,145 L177,174 M177,174 L166,204 M166,204 L148,229 M148,229 L134,252 M134,252 L124,268 M124,268 L114,274 M114,274 L115,279 M115,279 L112,266 M112,266 L115,250 M115,250 " fill="none" stroke="black" stroke-linecap="round" stroke-width="0.5" /></svg>