<?xml version="1.0" encoding="utf-8" ?>
<svg baseProfile="full" height="100%" version="1.1" viewBox="0,0,600,600" width="100%" xmlns="http://www.w3.org/2000/svg" xmlns:ev="http://www.w3.org/2001/xml-events" xmlns:xlink="http://www.w3.org/1999/xlink"><defs /><rect fill="white" height="600" width="600" x="0" y="0" /><path d="M100,100 L104,112 M104,112 L111,136 M111,136 L114,163 M114,163 L115,196 M115,196 L114,230 M114,230 L114,264 M114,264 L115,296 M115,296 L117,324 M117,324 L122,349 M122,349 L123,362 M123,362 L124,366 M124,366 L121,364 M121,364 L123,358 M123,358 L130,249 M130,249 L141,218 M141,218 L152,186 M152,186 L161,155 M161,155 L177,136 M177,136 L183,117 M183,117 L187,104 M187,104 L173,128 M173,128 L161,141 M161,141 L154,161 M154,161 L142,173 M142,173 L134,188 M134,188 L129,196 M129,196 L126,203 M126,203 L133,213 M133,213 " fill="none" stroke="black" stroke-linecap="round" stroke-width="0.5" /></svg>