<?xml version="1.0" encoding="utf-8" ?>
<svg baseProfile="full" height="100%" version="1.1" viewBox="0,0,600,600" width="100%" xmlns="http://www.w3.org/2000/svg" xmlns:ev="http://www.w3.org/2001/xml-events" xmlns:xlink="http://www.w3.org/1999/xlink"><defs /><rect fill="white" height="600" width="600" x="0" y="0" /><path d="M104,205 L110,196 M110,196 L120,179 M120,179 L133,166 M133,166 L137,148 M137,148 L140,131 M140,131 L138,118 M138,118 L135,110 M135,110 L129,105 M129,105 L121,101 M121,101 L114,110 M114,110 L107,125 M107,125 L100,139 M100,139 L100,155 M100,155 L107,169 M107,169 L120,179 M120,179 L138,187 M138,187 L215,170 M215,170 L221,161 M221,161 L224,154 M224,154 L225,149 M225,149 L220,137 M220,137 L218,129 M218,129 L218,123 M218,123 L205,108 M205,108 L198,103 M198,103 L199,103 M199,103 L202,105 M202,105 L199,103 M199,103 L205,108 M205,108 L203,105 M203,105 L205,104 M205,104 L216,100 M216,100 L223,100 M223,100 " fill="none" stroke="black" stroke-linecap="round" stroke-width="0.5" /></svg>