<?xml version="1.0" encoding="utf-8" ?>
<svg baseProfile="full" height="100%" version="1.1" viewBox="0,0,600,600" width="100%" xmlns="http://www.w3.org/2000/svg" xmlns:ev="http://www.w3.org/2001/xml-events" xmlns:xlink="http://www.w3.org/1999/xlink"><defs /><rect fill="white" height="600" width="600" x="0" y="0" /><path d="M192,146 L187,140 M187,140 L183,133 M183,133 L176,128 M176,128 L168,129 M168,129 L151,132 M151,132 L137,143 M137,143 L120,156 M120,156 L109,174 M109,174 L102,189 M102,189 L100,200 M100,200 L104,208 M104,208 L117,218 M117,218 L128,220 M128,220 L138,217 M138,217 L156,213 M156,213 L171,203 M171,203 L187,191 M187,191 L196,174 M196,174 L203,164 M203,164 L203,153 M203,153 L196,164 M196,164 L194,175 M194,175 L204,192 M204,192 L212,201 M212,201 L225,207 M225,207 L240,210 M240,210 L256,208 M256,208 L321,167 M321,167 L326,168 M326,168 L325,169 M325,169 L330,175 M330,175 L329,180 M329,180 L333,188 M333,188 L333,193 M333,193 L331,189 M331,189 L323,175 M323,175 L319,163 M319,163 L317,150 M317,150 L316,136 M316,136 L321,126 M321,126 L323,114 M323,114 L329,104 M329,104 L351,100 M351,100 L361,103 M361,103 " fill="none" stroke="black" stroke-linecap="round" stroke-width="0.5" /></svg>