<?xml version="1.0" encoding="utf-8" ?>
<svg baseProfile="full" height="100%" version="1.1" viewBox="0,0,600,600" width="100%" xmlns="http://www.w3.org/2000/svg" xmlns:ev="http://www.w3.org/2001/xml-events" xmlns:xlink="http://www.w3.org/1999/xlink"><defs /><rect fill="white" height="600" width="600" x="0" y="0" /><path d="M103,105 L101,101 M101,101 L101,100 M101,100 L100,102 M100,102 L101,112 M101,112 L107,134 M107,134 L112,163 M112,163 L116,199 M116,199 L117,236 M117,236 L118,275 M118,275 L119,312 M119,312 L124,346 M124,346 L128,370 M128,370 L136,405 M136,405 L132,404 M132,404 " fill="none" stroke="black" stroke-linecap="round" stroke-width="0.5" /></svg>