<?xml version="1.0" encoding="utf-8" ?>
<svg baseProfile="full" height="100%" version="1.1" viewBox="0,0,600,600" width="100%" xmlns="http://www.w3.org/2000/svg" xmlns:ev="http://www.w3.org/2001/xml-events" xmlns:xlink="http://www.w3.org/1999/xlink"><defs /><rect fill="white" height="600" width="600" x="0" y="0" /><path d="M106,175 L100,170 M100,170 L104,171 M104,171 L112,169 M112,169 L128,164 M128,164 L153,158 M153,158 L178,151 M178,151 L202,144 M202,144 L218,134 M218,134 L236,128 M236,128 L239,120 M239,120 L242,122 M242,122 L235,123 M235,123 L225,137 M225,137 L211,157 M211,157 L202,178 M202,178 L202,199 M202,199 L212,217 M212,217 L222,224 M222,224 L323,154 M323,154 L327,133 M327,133 L318,114 M318,114 L307,103 M307,103 L287,100 M287,100 L264,101 M264,101 L252,113 M252,113 " fill="none" stroke="black" stroke-linecap="round" stroke-width="0.5" /></svg>