<?xml version="1.0" encoding="utf-8" ?>
<svg baseProfile="full" height="100%" version="1.1" viewBox="0,0,600,600" width="100%" xmlns="http://www.w3.org/2000/svg" xmlns:ev="http://www.w3.org/2001/xml-events" xmlns:xlink="http://www.w3.org/1999/xlink"><defs /><rect fill="white" height="600" width="600" x="0" y="0" /><path d="M113,128 L109,134 M109,134 L106,151 M106,151 L109,179 M109,179 L107,206 M107,206 L104,235 M104,235 L103,267 M103,267 L100,296 M100,296 L104,322 M104,322 L106,343 M106,343 L106,351 M106,351 L107,355 M107,355 L105,351 M105,351 L107,342 M107,342 L104,321 M104,321 L103,298 M103,298 L101,269 M101,269 L108,243 M108,243 L169,104 M169,104 L177,100 M177,100 L185,102 M185,102 L193,112 M193,112 L198,126 M198,126 L194,142 M194,142 L194,168 M194,168 L183,189 M183,189 L133,237 M133,237 L129,230 M129,230 " fill="none" stroke="black" stroke-linecap="round" stroke-width="0.5" /></svg>