<?xml version="1.0" encoding="utf-8" ?>
<svg baseProfile="full" height="100%" version="1.1" viewBox="0,0,600,600" width="100%" xmlns="http://www.w3.org/2000/svg" xmlns:ev="http://www.w3.org/2001/xml-events" xmlns:xlink="http://www.w3.org/1999/xlink"><defs /><rect fill="white" height="600" width="600" x="0" y="0" /><path d="M100,185 L107,202 M107,202 L102,214 M102,214 L110,230 M110,230 L112,241 M112,241 L116,255 M116,255 L117,260 M117,260 L114,257 M114,257 L114,257 M114,257 L114,250 M114,250 L115,236 M115,236 L121,221 M121,221 L119,198 M119,198 L151,104 M151,104 L157,103 M157,103 L153,100 M153,100 " fill="none" stroke="black" stroke-linecap="round" stroke-width="0.5" /></svg>